<svg width="34" height="32" viewBox="0 0 34 32" fill="none" xmlns="http://www.w3.org/2000/svg">
<path d="M28.4 10.4C28.3 10.6 28.1 10.8 27.9 11.1C27.2 12.1 25.9 13.5 24.7 12.8C24.4 12.7 24.2 12.4 24.1 12.2L16.8 0L9.5 12.3C9.3 12.6 9.1 12.8 8.8 13C7.5 13.6 6.3 12.2 5.6 11.3C5.3 10.9 5.1 10.6 5.1 10.5C5.1 10.5 0 22.9 0 26.7C0 28.8 0.9 30.7 2.4 32C4.4 28.4 6.9 24.2 6.9 24.2C6.9 24.2 9.7 28.6 10.1 28.9C11.1 27.2 16.8 17.3 16.8 17.3C16.8 17.3 22.6 27.2 23.5 28.9C23.8 28.6 26.6 24.3 26.6 24.2C26.6 24.2 29.1 28.4 31.1 32C32.6 30.7 33.5 28.8 33.5 26.7C33.6 22.9 28.4 10.4 28.4 10.4Z" fill="#E5A229"/>
</svg>
